<svg xmlns="http://www.w3.org/2000/svg" xmlns:xlink="http://www.w3.org/1999/xlink" width="1080" zoomAndPan="magnify" viewBox="0 0 810 809.999993" height="1080" preserveAspectRatio="xMidYMid meet" version="1.0"><defs><clipPath id="4687573c02"><path d="M 0 14 L 809 14 L 809 809.71875 L 0 809.71875 Z M 0 14 " clip-rule="nonzero"/></clipPath></defs><path fill="#ffffff" d="M 384.957031 261.511719 C 316.257812 269.128906 260.28125 324.558594 251.992188 393.148438 C 251.722656 395.300781 251.5 397.460938 251.328125 399.625 C 251.152344 401.785156 251.023438 403.953125 250.9375 406.121094 C 250.855469 408.289062 250.820312 410.457031 250.832031 412.628906 C 250.839844 414.796875 250.898438 416.964844 251 419.132812 C 251.105469 421.300781 251.253906 423.464844 251.449219 425.625 C 251.644531 427.785156 251.886719 429.941406 252.175781 432.09375 C 252.464844 434.242188 252.796875 436.386719 253.179688 438.523438 C 253.558594 440.660156 253.984375 442.785156 254.457031 444.90625 C 254.925781 447.023438 255.445312 449.128906 256.003906 451.226562 C 256.566406 453.320312 257.171875 455.40625 257.824219 457.476562 C 258.476562 459.542969 259.167969 461.601562 259.910156 463.640625 C 260.648438 465.679688 261.429688 467.703125 262.257812 469.710938 C 263.082031 471.714844 263.949219 473.703125 264.859375 475.675781 C 265.773438 477.644531 266.722656 479.59375 267.71875 481.519531 C 268.714844 483.449219 269.75 485.355469 270.824219 487.242188 C 271.902344 489.125 273.015625 490.984375 274.171875 492.820312 C 275.328125 494.65625 276.523438 496.46875 277.757812 498.253906 C 278.988281 500.039062 280.261719 501.796875 281.570312 503.527344 C 282.878906 505.257812 284.222656 506.960938 285.605469 508.632812 C 286.988281 510.304688 288.40625 511.949219 289.855469 513.5625 C 291.308594 515.171875 292.792969 516.753906 294.316406 518.300781 C 295.835938 519.851562 297.386719 521.367188 298.972656 522.847656 C 300.554688 524.332031 302.171875 525.777344 303.820312 527.191406 C 305.464844 528.605469 307.140625 529.980469 308.847656 531.320312 C 310.554688 532.664062 312.289062 533.96875 314.050781 535.234375 C 315.8125 536.5 317.597656 537.730469 319.414062 538.917969 C 321.226562 540.109375 323.066406 541.257812 324.929688 542.371094 C 326.792969 543.480469 328.679688 544.554688 330.589844 545.582031 C 332.5 546.613281 334.429688 547.601562 336.382812 548.550781 C 338.335938 549.5 340.308594 550.402344 342.296875 551.265625 C 344.289062 552.128906 346.296875 552.949219 348.324219 553.726562 C 350.347656 554.503906 352.390625 555.238281 354.449219 555.925781 C 362.03125 557.140625 364.453125 552.441406 364.453125 548.355469 L 364.453125 522.746094 C 322.492188 531.863281 313.558594 502.457031 313.558594 502.457031 C 306.609375 484.882812 296.742188 480.183594 296.742188 480.183594 C 282.953125 470.789062 297.816406 471.101562 297.816406 471.101562 C 312.957031 472.171875 320.988281 486.703125 320.988281 486.703125 C 334.167969 509.730469 356.429688 502.910156 365.0625 499.273438 C 366.425781 489.429688 370.425781 482.757812 374.609375 478.972656 C 340.925781 475.1875 305.675781 462.15625 305.675781 404.453125 C 305.675781 387.636719 311.433594 374.15625 321.277344 363.402344 C 319.765625 359.617188 314.457031 343.863281 322.789062 323.410156 C 322.789062 323.410156 335.519531 319.316406 364.453125 338.863281 C 370.625 337.203125 376.882812 335.953125 383.222656 335.113281 C 389.558594 334.277344 395.925781 333.855469 402.320312 333.855469 C 408.710938 333.855469 415.078125 334.277344 421.417969 335.113281 C 427.753906 335.953125 434.011719 337.203125 440.183594 338.863281 C 469.140625 319.316406 481.847656 323.410156 481.847656 323.410156 C 490.167969 343.863281 484.871094 359.617188 483.359375 363.402344 C 493.203125 374.125 498.960938 387.636719 498.960938 404.453125 C 498.960938 462.308594 463.507812 475.035156 429.738281 478.824219 C 435.1875 483.519531 440.183594 492.761719 440.183594 506.84375 L 440.183594 548.355469 C 440.183594 552.441406 442.609375 557.289062 450.339844 555.925781 C 452.535156 555.191406 454.714844 554.40625 456.875 553.570312 C 459.035156 552.734375 461.171875 551.851562 463.292969 550.917969 C 465.414062 549.984375 467.507812 549 469.582031 547.972656 C 471.65625 546.941406 473.707031 545.863281 475.730469 544.742188 C 477.757812 543.617188 479.753906 542.449219 481.726562 541.234375 C 483.699219 540.019531 485.640625 538.757812 487.554688 537.453125 C 489.46875 536.148438 491.351562 534.800781 493.203125 533.414062 C 495.054688 532.023438 496.875 530.589844 498.660156 529.117188 C 500.445312 527.640625 502.199219 526.128906 503.914062 524.574219 C 505.632812 523.019531 507.3125 521.425781 508.957031 519.796875 C 510.601562 518.164062 512.207031 516.496094 513.773438 514.792969 C 515.34375 513.085938 516.871094 511.347656 518.359375 509.574219 C 519.84375 507.800781 521.292969 505.992188 522.695312 504.148438 C 524.101562 502.308594 525.464844 500.4375 526.78125 498.535156 C 528.101562 496.628906 529.378906 494.699219 530.609375 492.734375 C 531.839844 490.773438 533.023438 488.785156 534.164062 486.769531 C 535.304688 484.753906 536.394531 482.710938 537.441406 480.644531 C 538.488281 478.578125 539.484375 476.492188 540.4375 474.378906 C 541.386719 472.265625 542.289062 470.132812 543.140625 467.980469 C 543.992188 465.828125 544.796875 463.65625 545.550781 461.464844 C 546.300781 459.277344 547.003906 457.070312 547.65625 454.847656 C 548.308594 452.625 548.910156 450.390625 549.460938 448.140625 C 550.007812 445.890625 550.507812 443.628906 550.953125 441.355469 C 551.398438 439.085938 551.792969 436.804688 552.132812 434.511719 C 552.476562 432.222656 552.765625 429.925781 553 427.621094 C 553.234375 425.316406 553.417969 423.007812 553.550781 420.699219 C 553.679688 418.386719 553.757812 416.070312 553.78125 413.753906 C 553.804688 411.441406 553.777344 409.125 553.695312 406.808594 C 553.613281 404.496094 553.480469 402.183594 553.292969 399.875 C 553.105469 397.566406 552.863281 395.265625 552.570312 392.96875 C 552.277344 390.671875 551.933594 388.382812 551.535156 386.101562 C 551.136719 383.820312 550.6875 381.546875 550.183594 379.285156 C 549.683594 377.027344 549.128906 374.777344 548.523438 372.542969 C 547.917969 370.308594 547.261719 368.085938 546.554688 365.882812 C 545.847656 363.675781 545.09375 361.488281 544.285156 359.316406 C 543.476562 357.148438 542.621094 354.996094 541.714844 352.863281 C 540.808594 350.734375 539.855469 348.625 538.855469 346.535156 C 537.851562 344.449219 536.800781 342.382812 535.707031 340.34375 C 534.609375 338.304688 533.464844 336.292969 532.277344 334.304688 C 531.085938 332.316406 529.851562 330.359375 528.574219 328.425781 C 527.296875 326.496094 525.972656 324.597656 524.605469 322.726562 C 523.242188 320.855469 521.832031 319.019531 520.382812 317.210938 C 518.933594 315.40625 517.441406 313.636719 515.910156 311.898438 C 514.378906 310.160156 512.808594 308.460938 511.199219 306.792969 C 509.589844 305.128906 507.945312 303.5 506.261719 301.910156 C 504.574219 300.320312 502.855469 298.769531 501.101562 297.261719 C 499.347656 295.75 497.558594 294.277344 495.734375 292.851562 C 493.914062 291.421875 492.058594 290.035156 490.175781 288.691406 C 488.289062 287.34375 486.371094 286.046875 484.425781 284.789062 C 482.480469 283.53125 480.507812 282.320312 478.507812 281.15625 C 476.507812 279.988281 474.480469 278.871094 472.429688 277.796875 C 470.375 276.722656 468.300781 275.699219 466.199219 274.71875 C 464.101562 273.742188 461.980469 272.8125 459.839844 271.929688 C 457.699219 271.050781 455.535156 270.21875 453.355469 269.4375 C 451.175781 268.65625 448.980469 267.921875 446.765625 267.242188 C 444.554688 266.5625 442.324219 265.929688 440.082031 265.351562 C 437.839844 264.773438 435.585938 264.246094 433.320312 263.769531 C 431.054688 263.292969 428.777344 262.871094 426.492188 262.5 C 424.207031 262.125 421.914062 261.808594 419.613281 261.542969 C 417.3125 261.273438 415.007812 261.0625 412.695312 260.898438 C 410.386719 260.738281 408.074219 260.632812 405.757812 260.578125 C 403.441406 260.523438 401.128906 260.519531 398.8125 260.570312 C 396.496094 260.621094 394.183594 260.726562 391.875 260.882812 C 389.5625 261.039062 387.257812 261.25 384.957031 261.511719 Z M 384.957031 261.511719 " fill-opacity="1" fill-rule="nonzero"/><path fill="#ffffff" d="M 702.105469 311.578125 L 499.648438 310.003906 L 494.621094 279.621094 L 494.621094 111.523438 C 494.621094 95.84375 480.820312 83.019531 463.867188 83.019531 L 284.066406 83.019531 C 267.1875 83.019531 253.3125 95.84375 253.3125 111.523438 L 253.3125 313.976562 L 47.257812 313.976562 C 31.578125 313.976562 18.753906 327.78125 18.753906 344.730469 L 18.753906 524.535156 C 18.753906 541.410156 31.578125 555.289062 47.257812 555.289062 L 253.3125 555.289062 L 253.3125 764.945312 C 253.3125 780.621094 267.113281 793.449219 284.066406 793.449219 L 463.867188 793.449219 C 480.746094 793.449219 494.621094 780.621094 494.621094 764.945312 L 494.621094 555.289062 L 700.679688 555.289062 C 716.355469 555.289062 729.183594 541.484375 729.183594 524.535156 L 729.183594 344.65625 C 729.183594 327.78125 717.78125 311.578125 702.105469 311.578125 Z M 702.105469 311.578125 " fill-opacity="1" fill-rule="nonzero"/><g clip-path="url(#4687573c02)"><path fill="#000000" d="M 808.996094 271.144531 C 808.996094 270.921875 808.996094 270.695312 808.996094 270.546875 L 808.996094 270.472656 C 808.996094 270.246094 808.996094 269.945312 808.917969 269.722656 L 808.917969 269.644531 C 808.917969 269.421875 808.84375 269.121094 808.84375 268.894531 L 808.84375 268.820312 C 808.84375 268.597656 808.769531 268.371094 808.769531 268.144531 C 808.769531 268.070312 808.769531 268.070312 808.769531 267.996094 C 808.769531 267.921875 808.769531 267.847656 808.695312 267.769531 C 808.695312 267.695312 808.695312 267.621094 808.621094 267.546875 C 808.621094 267.472656 808.621094 267.394531 808.542969 267.394531 C 808.542969 267.320312 808.542969 267.246094 808.46875 267.171875 C 808.46875 267.097656 808.46875 267.097656 808.394531 267.019531 C 808.394531 266.945312 808.320312 266.796875 808.320312 266.722656 C 808.320312 266.644531 808.246094 266.496094 808.246094 266.421875 L 808.246094 266.347656 C 808.246094 266.195312 808.167969 266.121094 808.09375 265.96875 C 808.019531 265.820312 808.019531 265.746094 807.945312 265.59375 L 807.945312 265.519531 C 807.871094 265.371094 807.871094 265.296875 807.792969 265.144531 C 807.71875 264.996094 807.71875 264.921875 807.644531 264.769531 C 807.570312 264.621094 807.570312 264.546875 807.496094 264.394531 C 807.417969 264.246094 807.417969 264.171875 807.34375 264.019531 C 807.269531 263.871094 807.195312 263.71875 807.121094 263.644531 C 807.042969 263.570312 806.96875 263.421875 806.96875 263.34375 C 806.894531 263.195312 806.820312 263.121094 806.746094 262.96875 C 806.667969 262.894531 806.59375 262.746094 806.519531 262.671875 C 806.445312 262.519531 806.371094 262.445312 806.292969 262.296875 C 806.21875 262.21875 806.144531 262.070312 806.070312 261.996094 C 805.996094 261.921875 805.996094 261.84375 805.917969 261.84375 C 805.917969 261.769531 805.84375 261.769531 805.84375 261.695312 C 805.84375 261.695312 805.84375 261.621094 805.769531 261.621094 C 805.695312 261.546875 805.621094 261.394531 805.542969 261.320312 C 805.46875 261.246094 805.46875 261.246094 805.394531 261.167969 C 805.320312 261.09375 805.246094 261.019531 805.167969 260.945312 C 805.09375 260.871094 805.019531 260.792969 804.945312 260.71875 C 804.945312 260.644531 804.867188 260.644531 804.867188 260.570312 C 804.792969 260.496094 804.71875 260.34375 804.570312 260.269531 C 804.492188 260.195312 804.492188 260.195312 804.417969 260.121094 L 804.34375 260.042969 C 804.269531 259.894531 804.117188 259.820312 804.042969 259.667969 L 803.894531 259.519531 C 803.742188 259.371094 803.667969 259.292969 803.519531 259.144531 C 803.519531 259.144531 803.519531 259.144531 803.445312 259.070312 C 803.367188 258.996094 803.367188 258.996094 803.292969 258.917969 C 803.144531 258.769531 803.070312 258.695312 802.917969 258.542969 C 802.917969 258.542969 802.917969 258.542969 802.84375 258.46875 C 802.769531 258.46875 802.769531 258.394531 802.695312 258.394531 C 802.695312 258.394531 802.695312 258.394531 802.617188 258.394531 C 802.46875 258.320312 802.394531 258.167969 802.242188 258.09375 L 802.019531 257.871094 C 801.867188 257.792969 801.792969 257.71875 801.644531 257.570312 C 801.570312 257.496094 801.570312 257.496094 801.492188 257.496094 C 801.417969 257.417969 801.417969 257.417969 801.34375 257.34375 C 801.269531 257.269531 801.117188 257.195312 801.042969 257.121094 C 800.96875 257.042969 800.894531 257.042969 800.820312 256.96875 C 800.742188 256.894531 800.667969 256.894531 800.59375 256.820312 C 800.519531 256.746094 800.445312 256.746094 800.367188 256.667969 C 800.292969 256.59375 800.21875 256.59375 800.144531 256.519531 C 800.070312 256.445312 799.992188 256.445312 799.84375 256.371094 C 799.769531 256.371094 799.695312 256.292969 799.695312 256.292969 C 799.617188 256.21875 799.542969 256.21875 799.394531 256.144531 C 799.320312 256.070312 799.167969 256.070312 799.09375 255.996094 C 799.09375 255.996094 799.019531 255.996094 799.019531 255.917969 C 798.945312 255.84375 798.792969 255.84375 798.71875 255.769531 C 798.566406 255.695312 798.492188 255.695312 798.34375 255.621094 C 798.34375 255.621094 798.34375 255.621094 798.269531 255.621094 C 798.117188 255.542969 798.042969 255.542969 797.894531 255.46875 C 797.742188 255.394531 797.667969 255.394531 797.519531 255.320312 C 797.367188 255.242188 797.292969 255.242188 797.144531 255.167969 C 796.992188 255.09375 796.84375 255.09375 796.769531 255.019531 C 796.617188 254.945312 796.542969 254.945312 796.394531 254.945312 C 796.242188 254.945312 796.167969 254.867188 796.019531 254.867188 L 795.941406 254.867188 C 795.792969 254.867188 795.71875 254.792969 795.566406 254.792969 C 795.492188 254.792969 795.34375 254.71875 795.269531 254.71875 L 795.191406 254.71875 C 795.042969 254.71875 794.96875 254.644531 794.816406 254.644531 C 794.742188 254.644531 794.667969 254.644531 794.519531 254.570312 C 794.441406 254.570312 794.367188 254.570312 794.292969 254.570312 C 794.144531 254.570312 794.066406 254.570312 793.917969 254.492188 C 793.84375 254.492188 793.769531 254.492188 793.691406 254.492188 C 793.617188 254.492188 793.46875 254.492188 793.390625 254.492188 C 793.316406 254.492188 793.167969 254.492188 793.09375 254.492188 C 793.015625 254.492188 793.015625 254.492188 792.941406 254.492188 C 792.792969 254.492188 792.640625 254.492188 792.492188 254.492188 C 792.417969 254.492188 792.417969 254.492188 792.34375 254.492188 L 570.234375 251.117188 L 570.234375 30.886719 C 570.234375 30.734375 570.234375 30.660156 570.234375 30.511719 C 570.234375 30.359375 570.234375 30.210938 570.234375 30.0625 C 570.234375 29.910156 570.234375 29.761719 570.234375 29.6875 C 570.234375 29.535156 570.234375 29.386719 570.160156 29.234375 C 570.160156 29.085938 570.160156 28.9375 570.085938 28.859375 C 570.085938 28.710938 570.085938 28.5625 570.007812 28.410156 C 570.007812 28.261719 569.933594 28.1875 569.933594 28.035156 C 569.933594 27.886719 569.859375 27.734375 569.859375 27.585938 C 569.859375 27.433594 569.785156 27.285156 569.785156 27.210938 C 569.785156 27.058594 569.710938 26.910156 569.710938 26.761719 C 569.710938 26.609375 569.632812 26.460938 569.558594 26.386719 C 569.484375 26.234375 569.484375 26.160156 569.410156 26.011719 C 569.335938 25.859375 569.335938 25.710938 569.257812 25.636719 C 569.183594 25.484375 569.183594 25.410156 569.109375 25.261719 C 569.035156 25.109375 569.035156 24.960938 568.960938 24.808594 C 568.882812 24.660156 568.882812 24.585938 568.808594 24.433594 C 568.734375 24.285156 568.660156 24.136719 568.585938 23.984375 C 568.507812 23.910156 568.507812 23.761719 568.433594 23.683594 C 568.359375 23.535156 568.285156 23.386719 568.210938 23.234375 C 568.132812 23.160156 568.132812 23.011719 568.058594 22.933594 C 567.984375 22.785156 567.910156 22.632812 567.835938 22.484375 C 567.757812 22.410156 567.757812 22.257812 567.683594 22.183594 C 567.609375 22.035156 567.535156 21.882812 567.460938 21.808594 C 567.382812 21.734375 567.308594 21.660156 567.308594 21.507812 C 567.234375 21.359375 567.160156 21.210938 567.007812 21.132812 C 566.933594 21.058594 566.859375 20.984375 566.785156 20.910156 C 566.710938 20.757812 566.558594 20.683594 566.484375 20.535156 C 566.410156 20.460938 566.335938 20.382812 566.257812 20.308594 C 566.183594 20.160156 566.035156 20.085938 565.960938 19.933594 C 565.882812 19.859375 565.808594 19.785156 565.734375 19.710938 C 565.660156 19.558594 565.507812 19.484375 565.433594 19.335938 C 565.359375 19.257812 565.285156 19.183594 565.210938 19.109375 C 565.132812 19.035156 564.984375 18.882812 564.832031 18.808594 C 564.757812 18.734375 564.683594 18.660156 564.609375 18.585938 C 564.457031 18.507812 564.382812 18.359375 564.234375 18.285156 C 564.160156 18.210938 564.082031 18.132812 563.933594 18.058594 C 563.785156 17.984375 563.707031 17.910156 563.558594 17.757812 C 563.484375 17.683594 563.332031 17.609375 563.257812 17.535156 C 563.109375 17.460938 563.035156 17.382812 562.882812 17.308594 C 562.808594 17.234375 562.660156 17.160156 562.582031 17.085938 C 562.433594 17.007812 562.359375 16.933594 562.207031 16.859375 C 562.132812 16.785156 561.984375 16.707031 561.910156 16.632812 C 561.757812 16.558594 561.683594 16.484375 561.535156 16.410156 C 561.457031 16.332031 561.308594 16.257812 561.234375 16.183594 C 561.082031 16.109375 561.007812 16.035156 560.859375 15.957031 C 560.707031 15.882812 560.632812 15.808594 560.484375 15.808594 C 560.332031 15.734375 560.183594 15.660156 560.109375 15.660156 C 559.957031 15.582031 559.882812 15.582031 559.734375 15.507812 C 559.582031 15.433594 559.433594 15.433594 559.28125 15.359375 C 559.132812 15.285156 559.058594 15.285156 558.90625 15.207031 C 558.757812 15.132812 558.609375 15.132812 558.457031 15.058594 C 558.382812 15.058594 558.234375 14.984375 558.15625 14.984375 C 558.007812 14.910156 557.859375 14.910156 557.632812 14.832031 C 557.558594 14.832031 557.40625 14.757812 557.332031 14.757812 C 557.109375 14.683594 556.957031 14.683594 556.734375 14.609375 C 556.65625 14.609375 556.582031 14.535156 556.507812 14.535156 C 556.28125 14.457031 556.058594 14.457031 555.832031 14.382812 C 555.757812 14.382812 555.683594 14.382812 555.683594 14.382812 C 555.457031 14.382812 555.230469 14.308594 554.933594 14.308594 L 554.855469 14.308594 C 554.257812 14.234375 553.730469 14.234375 553.132812 14.234375 C 553.058594 14.234375 553.058594 14.234375 552.980469 14.234375 L 330.421875 14.234375 C 328.546875 14.234375 321.796875 18.507812 321.796875 18.507812 C 321.347656 18.808594 320.898438 19.035156 320.449219 19.410156 L 320.371094 19.410156 L 257.363281 64.867188 C 242.960938 72.515625 233.210938 87.59375 233.210938 104.996094 L 233.210938 293.125 L 46.207031 293.125 C 20.703125 293.125 0 313.828125 0 339.332031 L 0 530.007812 C 0 555.511719 20.703125 576.214844 46.207031 576.214844 L 233.507812 576.214844 L 233.507812 764.34375 C 233.507812 789.398438 253.835938 809.726562 278.890625 809.726562 L 471.21875 809.726562 C 482.019531 809.726562 491.996094 805.902344 499.796875 799.597656 C 500.25 799.375 500.699219 799.074219 501.148438 798.773438 L 573.234375 750.84375 C 573.460938 750.691406 573.683594 750.542969 573.910156 750.390625 C 573.910156 750.390625 573.910156 750.390625 573.984375 750.316406 C 574.132812 750.167969 574.285156 750.09375 574.507812 749.941406 C 575.859375 748.890625 576.984375 747.617188 577.886719 746.265625 C 577.886719 746.265625 577.886719 746.191406 577.960938 746.191406 C 578.109375 746.042969 578.183594 745.816406 578.261719 745.667969 C 578.335938 745.589844 578.335938 745.515625 578.410156 745.441406 C 578.484375 745.292969 578.558594 745.140625 578.636719 744.992188 C 578.710938 744.917969 578.785156 744.765625 578.785156 744.691406 C 578.859375 744.617188 578.859375 744.464844 578.933594 744.390625 C 579.011719 744.242188 579.085938 744.089844 579.160156 743.941406 C 579.160156 743.867188 579.234375 743.867188 579.234375 743.792969 C 579.308594 743.566406 579.460938 743.339844 579.535156 743.191406 C 580.210938 741.617188 580.585938 739.964844 580.734375 738.164062 C 580.734375 738.015625 580.734375 737.789062 580.8125 737.640625 C 580.8125 737.566406 580.8125 737.566406 580.8125 737.492188 C 580.8125 737.265625 580.8125 736.964844 580.8125 736.742188 L 580.8125 576.140625 L 703.980469 576.140625 C 715.230469 576.140625 725.582031 572.089844 733.609375 565.339844 L 801.417969 520.785156 C 806.820312 517.257812 809.519531 511.105469 808.917969 505.105469 C 808.996094 504.582031 808.996094 504.132812 808.996094 503.605469 Z M 278.890625 775.746094 C 272.515625 775.746094 267.414062 770.570312 267.414062 764.269531 L 267.414062 559.1875 C 267.414062 549.8125 259.839844 542.238281 250.460938 542.238281 L 46.207031 542.238281 C 39.378906 542.238281 33.90625 536.6875 33.90625 529.933594 L 33.90625 339.257812 C 33.90625 332.429688 39.457031 326.953125 46.207031 326.953125 L 250.460938 326.953125 C 259.839844 326.953125 267.414062 319.378906 267.414062 310.003906 L 267.414062 104.921875 C 267.414062 98.546875 272.589844 93.445312 278.890625 93.445312 L 471.21875 93.445312 C 477.59375 93.445312 482.695312 98.621094 482.695312 104.921875 L 482.695312 310.003906 C 482.695312 319.378906 490.273438 326.953125 499.648438 326.953125 C 513.074219 327.179688 527.851562 327.253906 543.304688 327.253906 C 543.679688 327.40625 544.128906 327.480469 544.582031 327.480469 L 703.902344 326.953125 C 710.730469 326.953125 716.207031 332.503906 716.207031 339.257812 L 716.207031 529.933594 C 716.207031 533.535156 714.628906 536.761719 712.230469 539.011719 L 708.929688 541.1875 C 707.429688 541.863281 705.703125 542.238281 703.980469 542.238281 L 499.722656 542.238281 C 490.347656 542.238281 482.769531 549.8125 482.769531 559.1875 L 482.769531 764.269531 C 482.769531 770.644531 477.59375 775.746094 471.292969 775.746094 Z M 278.890625 775.746094 " fill-opacity="1" fill-rule="nonzero"/></g></svg>