<svg xmlns="http://www.w3.org/2000/svg" xmlns:xlink="http://www.w3.org/1999/xlink" width="1080" zoomAndPan="magnify" viewBox="0 0 810 809.999993" height="1080" preserveAspectRatio="xMidYMid meet" version="1.0"><defs><clipPath id="2cdd097900"><path d="M 250.289062 243 L 560 243 L 560 567 L 250.289062 567 Z M 250.289062 243 " clip-rule="nonzero"/></clipPath></defs><g clip-path="url(#2cdd097900)"><path fill="#000000" d="M 504.089844 275.417969 L 489.03125 275.417969 L 489.03125 252.957031 C 489.03125 247.554688 484.632812 243.199219 479.261719 243.199219 C 473.851562 243.199219 469.492188 247.59375 469.492188 252.957031 L 469.492188 275.457031 L 335.226562 275.457031 L 335.226562 252.957031 C 335.226562 247.554688 330.824219 243.199219 325.457031 243.199219 C 320.046875 243.199219 315.6875 247.59375 315.6875 252.957031 L 315.6875 275.457031 L 306.199219 275.457031 C 275.320312 275.457031 250.289062 300.457031 250.289062 331.308594 L 250.289062 510.953125 C 250.289062 541.800781 275.320312 566.800781 306.199219 566.800781 L 504.089844 566.800781 C 534.972656 566.800781 560 541.800781 560 510.953125 L 560 331.308594 C 560.039062 300.457031 534.972656 275.417969 504.089844 275.417969 Z M 469.453125 285.738281 L 469.453125 306.023438 C 469.453125 311.425781 473.851562 315.78125 479.222656 315.78125 C 484.632812 315.78125 488.992188 311.386719 488.992188 306.023438 L 488.992188 286.507812 C 495.246094 290.136719 499.488281 296.910156 499.488281 304.652344 C 499.488281 316.226562 490.082031 325.621094 478.496094 325.621094 C 466.910156 325.621094 457.503906 316.226562 457.503906 304.652344 C 457.582031 296.304688 462.429688 289.128906 469.453125 285.738281 Z M 315.648438 286.101562 L 315.648438 306.023438 C 315.648438 311.425781 320.046875 315.78125 325.417969 315.78125 C 330.824219 315.78125 335.1875 311.386719 335.1875 306.023438 L 335.1875 286.101562 C 341.847656 289.613281 346.367188 296.585938 346.367188 304.613281 C 346.367188 316.183594 336.960938 325.582031 325.375 325.582031 C 313.789062 325.582031 304.382812 316.183594 304.382812 304.613281 C 304.464844 296.585938 309.027344 289.613281 315.648438 286.101562 Z M 540.460938 510.914062 C 540.460938 530.953125 524.152344 547.203125 504.128906 547.203125 L 306.199219 547.203125 C 286.136719 547.203125 269.867188 530.914062 269.867188 510.914062 L 269.867188 362.113281 L 540.460938 362.113281 Z M 540.460938 510.914062 " fill-opacity="1" fill-rule="nonzero"/></g><path fill="#000000" d="M 335.507812 418.449219 L 308.421875 418.449219 C 306.242188 418.449219 304.464844 416.675781 304.464844 414.496094 L 304.464844 387.4375 C 304.464844 385.261719 306.242188 383.488281 308.421875 383.488281 L 335.507812 383.488281 C 337.6875 383.488281 339.464844 385.261719 339.464844 387.4375 L 339.464844 414.496094 C 339.425781 416.675781 337.6875 418.449219 335.507812 418.449219 Z M 335.507812 418.449219 " fill-opacity="1" fill-rule="nonzero"/><path fill="#000000" d="M 335.507812 473.933594 L 308.421875 473.933594 C 306.242188 473.933594 304.464844 472.160156 304.464844 469.984375 L 304.464844 442.925781 C 304.464844 440.746094 306.242188 438.972656 308.421875 438.972656 L 335.507812 438.972656 C 337.6875 438.972656 339.464844 440.746094 339.464844 442.925781 L 339.464844 469.984375 C 339.425781 472.199219 337.6875 473.933594 335.507812 473.933594 Z M 335.507812 473.933594 " fill-opacity="1" fill-rule="nonzero"/><path fill="#000000" d="M 335.507812 529.460938 L 308.421875 529.460938 C 306.242188 529.460938 304.464844 527.6875 304.464844 525.511719 L 304.464844 498.453125 C 304.464844 496.273438 306.242188 494.5 308.421875 494.5 L 335.507812 494.5 C 337.6875 494.5 339.464844 496.273438 339.464844 498.453125 L 339.464844 525.550781 C 339.425781 527.6875 337.6875 529.460938 335.507812 529.460938 Z M 335.507812 529.460938 " fill-opacity="1" fill-rule="nonzero"/><path fill="#000000" d="M 391.054688 418.449219 L 363.96875 418.449219 C 361.789062 418.449219 360.011719 416.675781 360.011719 414.496094 L 360.011719 387.4375 C 360.011719 385.261719 361.789062 383.488281 363.96875 383.488281 L 391.054688 383.488281 C 393.234375 383.488281 395.011719 385.261719 395.011719 387.4375 L 395.011719 414.496094 C 395.011719 416.675781 393.234375 418.449219 391.054688 418.449219 Z M 391.054688 418.449219 " fill-opacity="1" fill-rule="nonzero"/><path fill="#000000" d="M 391.054688 473.933594 L 363.96875 473.933594 C 361.789062 473.933594 360.011719 472.160156 360.011719 469.984375 L 360.011719 442.925781 C 360.011719 440.746094 361.789062 438.972656 363.96875 438.972656 L 391.054688 438.972656 C 393.234375 438.972656 395.011719 440.746094 395.011719 442.925781 L 395.011719 469.984375 C 395.011719 472.199219 393.234375 473.933594 391.054688 473.933594 Z M 391.054688 473.933594 " fill-opacity="1" fill-rule="nonzero"/><path fill="#000000" d="M 391.054688 529.460938 L 363.96875 529.460938 C 361.789062 529.460938 360.011719 527.6875 360.011719 525.511719 L 360.011719 498.453125 C 360.011719 496.273438 361.789062 494.5 363.96875 494.5 L 391.054688 494.5 C 393.234375 494.5 395.011719 496.273438 395.011719 498.453125 L 395.011719 525.550781 C 395.011719 527.6875 393.234375 529.460938 391.054688 529.460938 Z M 391.054688 529.460938 " fill-opacity="1" fill-rule="nonzero"/><path fill="#000000" d="M 446.644531 418.449219 L 419.554688 418.449219 C 417.375 418.449219 415.601562 416.675781 415.601562 414.496094 L 415.601562 387.4375 C 415.601562 385.261719 417.375 383.488281 419.554688 383.488281 L 446.644531 383.488281 C 448.824219 383.488281 450.601562 385.261719 450.601562 387.4375 L 450.601562 414.496094 C 450.558594 416.675781 448.824219 418.449219 446.644531 418.449219 Z M 446.644531 418.449219 " fill-opacity="1" fill-rule="nonzero"/><path fill="#000000" d="M 446.644531 473.933594 L 419.554688 473.933594 C 417.375 473.933594 415.601562 472.160156 415.601562 469.984375 L 415.601562 442.925781 C 415.601562 440.746094 417.375 438.972656 419.554688 438.972656 L 446.644531 438.972656 C 448.824219 438.972656 450.601562 440.746094 450.601562 442.925781 L 450.601562 469.984375 C 450.558594 472.199219 448.824219 473.933594 446.644531 473.933594 Z M 446.644531 473.933594 " fill-opacity="1" fill-rule="nonzero"/><path fill="#000000" d="M 446.644531 529.460938 L 419.554688 529.460938 C 417.375 529.460938 415.601562 527.6875 415.601562 525.511719 L 415.601562 498.453125 C 415.601562 496.273438 417.375 494.5 419.554688 494.5 L 446.644531 494.5 C 448.824219 494.5 450.601562 496.273438 450.601562 498.453125 L 450.601562 525.550781 C 450.558594 527.6875 448.824219 529.460938 446.644531 529.460938 Z M 446.644531 529.460938 " fill-opacity="1" fill-rule="nonzero"/><path fill="#000000" d="M 502.230469 418.449219 L 475.144531 418.449219 C 472.964844 418.449219 471.1875 416.675781 471.1875 414.496094 L 471.1875 387.4375 C 471.1875 385.261719 472.964844 383.488281 475.144531 383.488281 L 502.230469 383.488281 C 504.410156 383.488281 506.1875 385.261719 506.1875 387.4375 L 506.1875 414.496094 C 506.148438 416.675781 504.371094 418.449219 502.230469 418.449219 Z M 502.230469 418.449219 " fill-opacity="1" fill-rule="nonzero"/><path fill="#000000" d="M 502.230469 473.933594 L 475.144531 473.933594 C 472.964844 473.933594 471.1875 472.160156 471.1875 469.984375 L 471.1875 442.925781 C 471.1875 440.746094 472.964844 438.972656 475.144531 438.972656 L 502.230469 438.972656 C 504.410156 438.972656 506.1875 440.746094 506.1875 442.925781 L 506.1875 469.984375 C 506.148438 472.199219 504.371094 473.933594 502.230469 473.933594 Z M 502.230469 473.933594 " fill-opacity="1" fill-rule="nonzero"/></svg>