<svg xmlns="http://www.w3.org/2000/svg" xmlns:xlink="http://www.w3.org/1999/xlink" width="1080" zoomAndPan="magnify" viewBox="0 0 810 809.999993" height="1080" preserveAspectRatio="xMidYMid meet" version="1.0"><defs><clipPath id="6b6c4cb618"><path d="M 264.601562 243 L 545 243 L 545 567 L 264.601562 567 Z M 264.601562 243 " clip-rule="nonzero"/></clipPath></defs><g clip-path="url(#6b6c4cb618)"><path fill="#000000" d="M 522.214844 278.078125 L 475.5625 278.078125 L 475.5625 271.410156 C 475.5625 255.773438 462.855469 243.050781 447.230469 243.050781 L 362.109375 243.050781 C 346.488281 243.050781 333.777344 255.773438 333.777344 271.410156 L 333.777344 278.078125 L 287.128906 278.078125 C 274.90625 278.078125 264.960938 288.03125 264.960938 300.265625 L 264.960938 310.785156 C 264.960938 322.234375 273.671875 331.6875 284.808594 332.851562 L 307.632812 533.359375 C 309.808594 552.507812 325.972656 566.945312 345.226562 566.945312 L 464.109375 566.945312 C 483.363281 566.945312 499.527344 552.507812 501.703125 533.359375 L 524.53125 332.851562 C 535.667969 331.691406 544.378906 322.234375 544.378906 310.785156 L 544.378906 300.265625 C 544.378906 288.03125 534.429688 278.078125 522.210938 278.078125 Z M 348.164062 271.410156 C 348.164062 263.710938 354.417969 257.449219 362.113281 257.449219 L 447.234375 257.449219 C 454.925781 257.449219 461.179688 263.710938 461.179688 271.410156 L 461.179688 278.078125 L 348.164062 278.078125 Z M 487.417969 531.726562 C 486.066406 543.597656 476.046875 552.546875 464.117188 552.546875 L 345.234375 552.546875 C 333.300781 552.546875 323.285156 543.597656 321.933594 531.726562 L 299.3125 332.976562 L 510.042969 332.976562 Z M 530 310.785156 C 530 315.078125 526.507812 318.574219 522.21875 318.574219 L 287.128906 318.574219 C 282.835938 318.574219 279.34375 315.078125 279.34375 310.785156 L 279.34375 300.265625 C 279.34375 295.972656 282.835938 292.476562 287.128906 292.476562 L 522.210938 292.476562 C 526.5 292.476562 529.992188 295.972656 529.992188 300.265625 L 529.992188 310.785156 Z M 530 310.785156 " fill-opacity="1" fill-rule="nonzero"/></g><path fill="#000000" d="M 404.671875 513.574219 C 408.640625 513.574219 411.863281 510.351562 411.863281 506.375 L 411.863281 379.144531 C 411.863281 375.171875 408.640625 371.945312 404.671875 371.945312 C 400.699219 371.945312 397.476562 375.171875 397.476562 379.144531 L 397.476562 506.375 C 397.476562 510.351562 400.699219 513.574219 404.671875 513.574219 Z M 404.671875 513.574219 " fill-opacity="1" fill-rule="nonzero"/><path fill="#000000" d="M 447.667969 513.242188 C 447.902344 513.265625 448.140625 513.277344 448.371094 513.277344 C 452.03125 513.277344 455.160156 510.496094 455.519531 506.777344 L 467.84375 380.140625 C 468.226562 376.183594 465.335938 372.660156 461.382812 372.277344 C 457.375 371.871094 453.910156 374.785156 453.523438 378.742188 L 441.203125 505.375 C 440.820312 509.335938 443.710938 512.855469 447.664062 513.242188 Z M 447.667969 513.242188 " fill-opacity="1" fill-rule="nonzero"/><path fill="#000000" d="M 360.96875 513.277344 C 361.199219 513.277344 361.4375 513.265625 361.671875 513.242188 C 365.625 512.859375 368.515625 509.335938 368.132812 505.375 L 355.8125 378.742188 C 355.425781 374.785156 351.964844 371.871094 347.953125 372.277344 C 344 372.65625 341.109375 376.183594 341.496094 380.140625 L 353.816406 506.777344 C 354.179688 510.496094 357.308594 513.277344 360.964844 513.277344 Z M 360.96875 513.277344 " fill-opacity="1" fill-rule="nonzero"/></svg>