<svg xmlns="http://www.w3.org/2000/svg" xmlns:xlink="http://www.w3.org/1999/xlink" width="1080" zoomAndPan="magnify" viewBox="0 0 810 809.999993" height="1080" preserveAspectRatio="xMidYMid meet" version="1.0"><path fill="#000000" d="M 328.605469 425.015625 L 462.355469 291.253906 L 518.746094 347.644531 L 384.984375 481.394531 L 321.5625 488.4375 Z M 328.605469 425.015625 " fill-opacity="1" fill-rule="nonzero"/><path fill="#000000" d="M 479.441406 274.160156 L 502.5 251.113281 C 502.960938 250.652344 503.445312 250.214844 503.949219 249.804688 C 504.457031 249.390625 504.980469 249.003906 505.523438 248.644531 C 506.066406 248.28125 506.628906 247.949219 507.203125 247.640625 C 507.777344 247.335938 508.367188 247.058594 508.972656 246.808594 C 509.574219 246.5625 510.1875 246.34375 510.8125 246.152344 C 511.4375 245.964844 512.070312 245.808594 512.710938 245.679688 C 513.351562 245.554688 513.996094 245.457031 514.644531 245.394531 C 515.292969 245.332031 515.945312 245.300781 516.597656 245.300781 C 517.25 245.300781 517.898438 245.332031 518.546875 245.394531 C 519.199219 245.457031 519.84375 245.554688 520.480469 245.679688 C 521.121094 245.808594 521.753906 245.964844 522.378906 246.152344 C 523.003906 246.34375 523.617188 246.5625 524.21875 246.808594 C 524.824219 247.058594 525.414062 247.335938 525.988281 247.640625 C 526.566406 247.949219 527.125 248.28125 527.667969 248.644531 C 528.210938 249.003906 528.734375 249.390625 529.242188 249.804688 C 529.746094 250.214844 530.230469 250.652344 530.695312 251.113281 L 558.878906 279.304688 C 559.335938 279.769531 559.773438 280.253906 560.1875 280.757812 C 560.601562 281.261719 560.988281 281.785156 561.351562 282.328125 C 561.714844 282.871094 562.046875 283.433594 562.355469 284.007812 C 562.660156 284.585938 562.941406 285.171875 563.1875 285.777344 C 563.4375 286.378906 563.65625 286.992188 563.847656 287.617188 C 564.035156 288.242188 564.195312 288.875 564.320312 289.515625 C 564.449219 290.15625 564.542969 290.800781 564.605469 291.449219 C 564.671875 292.101562 564.703125 292.75 564.703125 293.402344 C 564.703125 294.054688 564.671875 294.707031 564.609375 295.355469 C 564.542969 296.007812 564.449219 296.652344 564.320312 297.292969 C 564.195312 297.933594 564.035156 298.5625 563.847656 299.1875 C 563.65625 299.8125 563.4375 300.425781 563.1875 301.03125 C 562.941406 301.632812 562.660156 302.222656 562.355469 302.800781 C 562.046875 303.375 561.714844 303.933594 561.351562 304.476562 C 560.988281 305.019531 560.601562 305.546875 560.1875 306.050781 C 559.773438 306.554688 559.335938 307.039062 558.878906 307.5 L 535.828125 330.550781 Z M 479.441406 274.160156 " fill-opacity="1" fill-rule="nonzero"/><path fill="#000000" d="M 541.722656 417.636719 C 540.96875 417.636719 540.222656 417.710938 539.480469 417.859375 C 538.742188 418.007812 538.023438 418.222656 537.328125 418.511719 C 536.628906 418.800781 535.96875 419.15625 535.339844 419.574219 C 534.714844 419.992188 534.132812 420.46875 533.597656 421.003906 C 533.066406 421.535156 532.589844 422.117188 532.171875 422.746094 C 531.75 423.371094 531.398438 424.035156 531.109375 424.730469 C 530.820312 425.429688 530.601562 426.144531 530.453125 426.886719 C 530.308594 427.625 530.234375 428.375 530.234375 429.128906 L 530.234375 532.53125 C 530.234375 533.285156 530.160156 534.035156 530.011719 534.773438 C 529.867188 535.511719 529.648438 536.230469 529.359375 536.929688 C 529.070312 537.625 528.714844 538.289062 528.296875 538.914062 C 527.878906 539.542969 527.402344 540.121094 526.867188 540.65625 C 526.335938 541.191406 525.753906 541.664062 525.128906 542.085938 C 524.5 542.503906 523.839844 542.859375 523.140625 543.148438 C 522.445312 543.433594 521.726562 543.652344 520.984375 543.800781 C 520.246094 543.949219 519.5 544.019531 518.746094 544.019531 L 277.46875 544.019531 C 276.714844 544.019531 275.964844 543.949219 275.226562 543.800781 C 274.488281 543.652344 273.769531 543.433594 273.070312 543.148438 C 272.375 542.859375 271.710938 542.503906 271.085938 542.085938 C 270.457031 541.664062 269.878906 541.191406 269.34375 540.65625 C 268.808594 540.121094 268.335938 539.542969 267.914062 538.914062 C 267.496094 538.289062 267.140625 537.625 266.851562 536.929688 C 266.566406 536.230469 266.347656 535.511719 266.199219 534.773438 C 266.050781 534.035156 265.980469 533.285156 265.980469 532.53125 L 265.980469 291.253906 C 265.980469 290.5 266.050781 289.753906 266.199219 289.015625 C 266.347656 288.273438 266.566406 287.554688 266.851562 286.859375 C 267.140625 286.160156 267.496094 285.5 267.914062 284.871094 C 268.335938 284.246094 268.808594 283.664062 269.34375 283.132812 C 269.878906 282.597656 270.457031 282.121094 271.085938 281.703125 C 271.710938 281.28125 272.375 280.929688 273.070312 280.640625 C 273.769531 280.351562 274.488281 280.132812 275.226562 279.988281 C 275.964844 279.839844 276.714844 279.765625 277.46875 279.765625 L 380.871094 279.765625 C 381.625 279.765625 382.375 279.691406 383.113281 279.546875 C 383.855469 279.398438 384.570312 279.179688 385.269531 278.890625 C 385.964844 278.601562 386.628906 278.25 387.253906 277.828125 C 387.882812 277.410156 388.464844 276.933594 388.996094 276.402344 C 389.53125 275.867188 390.007812 275.285156 390.425781 274.660156 C 390.84375 274.03125 391.199219 273.371094 391.488281 272.671875 C 391.777344 271.976562 391.992188 271.257812 392.140625 270.519531 C 392.289062 269.777344 392.363281 269.03125 392.363281 268.277344 C 392.363281 267.523438 392.289062 266.773438 392.140625 266.035156 C 391.992188 265.296875 391.777344 264.578125 391.488281 263.878906 C 391.199219 263.183594 390.84375 262.519531 390.425781 261.894531 C 390.007812 261.265625 389.53125 260.6875 388.996094 260.152344 C 388.464844 259.617188 387.882812 259.144531 387.253906 258.722656 C 386.628906 258.304688 385.964844 257.949219 385.269531 257.660156 C 384.570312 257.375 383.855469 257.15625 383.113281 257.007812 C 382.375 256.859375 381.625 256.789062 380.871094 256.789062 L 277.46875 256.789062 C 276.339844 256.789062 275.214844 256.84375 274.089844 256.953125 C 272.964844 257.0625 271.851562 257.230469 270.742188 257.449219 C 269.636719 257.667969 268.542969 257.945312 267.460938 258.269531 C 266.382812 258.597656 265.320312 258.980469 264.277344 259.410156 C 263.234375 259.84375 262.214844 260.324219 261.21875 260.855469 C 260.222656 261.390625 259.257812 261.96875 258.320312 262.597656 C 257.378906 263.222656 256.472656 263.894531 255.601562 264.609375 C 254.730469 265.328125 253.894531 266.085938 253.09375 266.882812 C 252.296875 267.679688 251.539062 268.515625 250.824219 269.390625 C 250.109375 270.261719 249.4375 271.167969 248.808594 272.105469 C 248.183594 273.042969 247.601562 274.011719 247.070312 275.007812 C 246.539062 276.003906 246.054688 277.023438 245.625 278.066406 C 245.191406 279.109375 244.8125 280.167969 244.484375 281.25 C 244.15625 282.328125 243.882812 283.421875 243.664062 284.53125 C 243.441406 285.636719 243.277344 286.753906 243.164062 287.875 C 243.054688 289 243 290.125 243 291.253906 L 243 532.53125 C 243 533.660156 243.054688 534.785156 243.164062 535.910156 C 243.277344 537.035156 243.441406 538.148438 243.664062 539.257812 C 243.882812 540.363281 244.15625 541.457031 244.484375 542.539062 C 244.8125 543.617188 245.191406 544.679688 245.625 545.722656 C 246.054688 546.765625 246.539062 547.785156 247.070312 548.78125 C 247.601562 549.777344 248.183594 550.742188 248.808594 551.679688 C 249.4375 552.621094 250.109375 553.527344 250.824219 554.398438 C 251.539062 555.269531 252.296875 556.105469 253.09375 556.90625 C 253.894531 557.703125 254.730469 558.460938 255.601562 559.175781 C 256.472656 559.890625 257.378906 560.5625 258.320312 561.191406 C 259.257812 561.816406 260.222656 562.398438 261.21875 562.929688 C 262.214844 563.460938 263.234375 563.945312 264.277344 564.375 C 265.320312 564.808594 266.382812 565.1875 267.460938 565.515625 C 268.542969 565.84375 269.636719 566.117188 270.742188 566.335938 C 271.851562 566.558594 272.964844 566.722656 274.089844 566.835938 C 275.214844 566.945312 276.339844 567 277.46875 567 L 518.746094 567 C 519.875 567 521 566.945312 522.125 566.835938 C 523.246094 566.722656 524.363281 566.558594 525.46875 566.335938 C 526.578125 566.117188 527.671875 565.84375 528.75 565.515625 C 529.832031 565.1875 530.890625 564.808594 531.933594 564.375 C 532.976562 563.945312 533.996094 563.460938 534.992188 562.929688 C 535.988281 562.398438 536.957031 561.816406 537.894531 561.191406 C 538.832031 560.5625 539.738281 559.890625 540.609375 559.175781 C 541.484375 558.460938 542.320312 557.703125 543.117188 556.90625 C 543.914062 556.105469 544.671875 555.269531 545.390625 554.398438 C 546.105469 553.527344 546.777344 552.621094 547.402344 551.679688 C 548.03125 550.742188 548.609375 549.777344 549.144531 548.78125 C 549.675781 547.785156 550.15625 546.765625 550.589844 545.722656 C 551.019531 544.679688 551.402344 543.617188 551.726562 542.539062 C 552.054688 541.457031 552.332031 540.363281 552.550781 539.257812 C 552.769531 538.148438 552.9375 537.035156 553.046875 535.910156 C 553.15625 534.785156 553.210938 533.660156 553.210938 532.53125 L 553.210938 429.128906 C 553.210938 428.375 553.140625 427.625 552.992188 426.886719 C 552.84375 426.144531 552.625 425.429688 552.339844 424.730469 C 552.050781 424.035156 551.695312 423.371094 551.277344 422.746094 C 550.855469 422.117188 550.382812 421.535156 549.847656 421.003906 C 549.3125 420.46875 548.734375 419.992188 548.105469 419.574219 C 547.480469 419.15625 546.816406 418.800781 546.121094 418.511719 C 545.421875 418.222656 544.703125 418.007812 543.964844 417.859375 C 543.226562 417.710938 542.476562 417.636719 541.722656 417.636719 Z M 541.722656 417.636719 " fill-opacity="1" fill-rule="nonzero"/></svg>