<svg xmlns="http://www.w3.org/2000/svg" xmlns:xlink="http://www.w3.org/1999/xlink" width="1080" zoomAndPan="magnify" viewBox="0 0 810 809.999993" height="1080" preserveAspectRatio="xMidYMid meet" version="1.0"><path fill="#ffffff" d="M 249.015625 517.808594 C 246.125 517.808594 243.789062 515.464844 243.789062 512.582031 L 243.789062 301.636719 C 243.789062 285.765625 256.703125 272.859375 272.574219 272.859375 L 348.332031 272.859375 C 362.84375 272.859375 374.882812 283.660156 376.832031 297.644531 L 505.941406 297.644531 C 523.515625 297.644531 537.8125 311.945312 537.8125 329.53125 L 537.8125 365.875 C 537.8125 368.761719 535.476562 371.101562 532.589844 371.101562 C 529.699219 371.101562 527.363281 368.761719 527.363281 365.875 L 527.363281 329.53125 C 527.363281 317.710938 517.753906 308.09375 505.941406 308.09375 L 371.882812 308.09375 C 368.996094 308.09375 366.660156 305.753906 366.660156 302.871094 L 366.660156 301.636719 C 366.660156 291.527344 358.4375 283.308594 348.332031 283.308594 L 272.574219 283.308594 C 262.460938 283.308594 254.242188 291.527344 254.242188 301.636719 L 254.242188 512.582031 C 254.242188 515.472656 251.90625 517.808594 249.015625 517.808594 Z M 249.015625 517.808594 " fill-opacity="1" fill-rule="nonzero"/><path fill="#ffffff" d="M 512.761719 537.136719 L 265.179688 537.136719 C 258.425781 537.136719 252.503906 534.472656 248.503906 529.621094 C 244.519531 524.804688 242.96875 518.234375 244.242188 511.59375 L 268.847656 384.214844 C 271.371094 371.21875 284.113281 360.644531 297.242188 360.644531 L 544.820312 360.644531 C 551.582031 360.644531 557.515625 363.320312 561.519531 368.175781 C 565.5 373 567.046875 379.570312 565.761719 386.195312 L 541.160156 513.570312 C 538.632812 526.570312 525.898438 537.136719 512.761719 537.136719 Z M 297.238281 371.101562 C 289.003906 371.101562 280.695312 378.023438 279.101562 386.207031 L 254.503906 513.574219 C 253.8125 517.191406 254.539062 520.53125 256.5625 522.96875 C 258.542969 525.367188 261.605469 526.683594 265.179688 526.683594 L 512.761719 526.683594 C 521.003906 526.683594 529.304688 519.773438 530.894531 511.589844 L 555.496094 384.214844 C 556.191406 380.609375 555.464844 377.273438 553.449219 374.832031 C 551.464844 372.425781 548.394531 371.101562 544.816406 371.101562 Z M 297.238281 371.101562 " fill-opacity="1" fill-rule="nonzero"/><path fill="#ffffff" d="M 274.140625 389.6875 C 271.25 389.6875 268.914062 387.34375 268.914062 384.460938 L 268.914062 335.660156 C 268.914062 330.867188 272.808594 326.976562 277.59375 326.976562 L 498.527344 326.976562 C 503.300781 326.976562 507.191406 330.875 507.191406 335.660156 L 507.191406 365.882812 C 507.191406 368.765625 504.855469 371.109375 501.964844 371.109375 C 499.074219 371.109375 496.738281 368.765625 496.738281 365.882812 L 496.738281 337.425781 L 279.367188 337.425781 L 279.367188 384.460938 C 279.367188 387.34375 277.03125 389.6875 274.140625 389.6875 Z M 274.140625 389.6875 " fill-opacity="1" fill-rule="nonzero"/></svg>