<svg xmlns="http://www.w3.org/2000/svg" xmlns:xlink="http://www.w3.org/1999/xlink" width="1080" zoomAndPan="magnify" viewBox="0 0 810 809.999993" height="1080" preserveAspectRatio="xMidYMid meet" version="1.0"><path fill="#ffffff" d="M 249.015625 517.808594 C 246.125 517.808594 243.789062 515.464844 243.789062 512.582031 L 243.789062 301.636719 C 243.789062 285.765625 256.703125 272.859375 272.574219 272.859375 L 348.332031 272.859375 C 362.84375 272.859375 374.882812 283.660156 376.832031 297.644531 L 505.941406 297.644531 C 523.515625 297.644531 537.8125 311.945312 537.8125 329.53125 L 537.8125 365.875 C 537.8125 368.761719 535.476562 371.101562 532.589844 371.101562 C 529.699219 371.101562 527.363281 368.761719 527.363281 365.875 L 527.363281 329.53125 C 527.363281 317.710938 517.753906 308.09375 505.941406 308.09375 L 371.882812 308.09375 C 368.996094 308.09375 366.660156 305.753906 366.660156 302.871094 L 366.660156 301.636719 C 366.660156 291.527344 358.4375 283.308594 348.332031 283.308594 L 272.574219 283.308594 C 262.460938 283.308594 254.242188 291.527344 254.242188 301.636719 L 254.242188 512.582031 C 254.242188 515.472656 251.90625 517.808594 249.015625 517.808594 Z M 249.015625 517.808594 " fill-opacity="1" fill-rule="nonzero"/><path fill="#ffffff" d="M 512.761719 537.136719 L 265.179688 537.136719 C 258.425781 537.136719 252.503906 534.472656 248.503906 529.621094 C 244.519531 524.804688 242.96875 518.234375 244.242188 511.59375 L 268.847656 384.214844 C 271.371094 371.21875 284.113281 360.644531 297.242188 360.644531 L 544.820312 360.644531 C 551.582031 360.644531 557.515625 363.320312 561.519531 368.175781 C 565.5 373 567.046875 379.570312 565.761719 386.195312 L 541.160156 513.570312 C 538.632812 526.570312 525.898438 537.136719 512.761719 537.136719 Z M 297.238281 371.101562 C 289.003906 371.101562 280.695312 378.023438 279.101562 386.207031 L 254.503906 513.574219 C 253.8125 517.191406 254.539062 520.53125 256.5625 522.96875 C 258.542969 525.367188 261.605469 526.683594 265.179688 526.683594 L 512.761719 526.683594 C 521.003906 526.683594 529.304688 519.773438 530.894531 511.589844 L 555.496094 384.214844 C 556.191406 380.609375 555.464844 377.273438 553.449219 374.832031 C 551.464844 372.425781 548.394531 371.101562 544.816406 371.101562 Z M 297.238281 371.101562 " fill-opacity="1" fill-rule="nonzero"/><path fill="#ffffff" d="M 274.140625 389.6875 C 271.25 389.6875 268.914062 387.34375 268.914062 384.460938 L 268.914062 335.660156 C 268.914062 330.867188 272.808594 326.976562 277.59375 326.976562 L 498.527344 326.976562 C 503.300781 326.976562 507.191406 330.875 507.191406 335.660156 L 507.191406 365.882812 C 507.191406 368.765625 504.855469 371.109375 501.964844 371.109375 C 499.074219 371.109375 496.738281 368.765625 496.738281 365.882812 L 496.738281 337.425781 L 279.367188 337.425781 L 279.367188 384.460938 C 279.367188 387.34375 277.03125 389.6875 274.140625 389.6875 Z M 274.140625 389.6875 " fill-opacity="1" fill-rule="nonzero"/><path fill="#ffffff" d="M 548.421875 357.757812 C 541.75 360.703125 537.757812 365.738281 536.382812 372.90625 C 535.300781 378.535156 536.382812 384.601562 539.609375 389.335938 C 542.574219 393.695312 547.285156 396.804688 552.449219 397.886719 C 557.609375 398.96875 563.152344 398.035156 567.699219 395.371094 C 573.765625 391.824219 577.917969 385.183594 578.46875 378.183594 C 578.980469 371.605469 577.40625 365.132812 572.152344 360.765625 C 565.628906 355.34375 557.203125 353.875 548.421875 357.757812 Z M 548.421875 357.757812 " fill-opacity="1" fill-rule="nonzero"/><path fill="#ffffff" d="M 360.597656 355.730469 C 348.984375 357.1875 335.210938 360.183594 332.179688 372.335938 C 330.546875 378.890625 332.972656 385.765625 337.882812 390.40625 C 348.320312 400.261719 362.375 400.074219 375.601562 399.71875 C 410.339844 398.773438 445.082031 397.824219 479.824219 396.878906 C 492.140625 396.546875 505.242188 395.964844 515.398438 388.980469 C 515.761719 388.730469 516.113281 388.472656 516.46875 388.203125 C 529.453125 378.097656 523.179688 357.09375 506.855469 355.144531 C 457.816406 349.308594 409.839844 349.546875 360.597656 355.730469 Z M 360.597656 355.730469 " fill-opacity="1" fill-rule="nonzero"/><path fill="#ffffff" d="M 268.097656 293.675781 C 261.429688 296.621094 257.433594 301.65625 256.0625 308.824219 C 254.980469 314.453125 256.0625 320.519531 259.285156 325.253906 C 262.253906 329.613281 266.964844 332.722656 272.125 333.804688 C 277.285156 334.886719 282.832031 333.953125 287.378906 331.289062 C 293.445312 327.742188 297.597656 321.101562 298.148438 314.101562 C 298.65625 307.523438 297.085938 301.050781 291.832031 296.683594 C 285.308594 291.261719 276.890625 289.792969 268.097656 293.675781 Z M 268.097656 293.675781 " fill-opacity="1" fill-rule="nonzero"/><path fill="#ffffff" d="M 340.984375 290.191406 C 329.371094 291.648438 315.597656 294.644531 312.570312 306.796875 C 310.933594 313.351562 313.359375 320.226562 318.269531 324.867188 C 328.707031 334.722656 342.761719 334.535156 355.988281 334.179688 C 390.726562 333.234375 425.46875 332.289062 460.210938 331.339844 C 472.53125 331.007812 485.628906 330.425781 495.785156 323.445312 C 496.148438 323.195312 496.5 322.933594 496.855469 322.664062 C 509.839844 312.558594 503.566406 291.554688 487.242188 289.609375 C 438.195312 283.769531 390.21875 284.011719 340.984375 290.191406 Z M 340.984375 290.191406 " fill-opacity="1" fill-rule="nonzero"/><path fill="#ffffff" d="M 548.421875 488.753906 C 541.75 491.695312 537.757812 496.730469 536.382812 503.902344 C 535.300781 509.53125 536.382812 515.597656 539.609375 520.332031 C 542.574219 524.691406 547.285156 527.800781 552.449219 528.882812 C 557.609375 529.964844 563.152344 529.027344 567.699219 526.363281 C 573.765625 522.816406 577.917969 516.179688 578.46875 509.175781 C 578.980469 502.601562 577.40625 496.128906 572.152344 491.757812 C 565.628906 486.339844 557.203125 484.871094 548.421875 488.753906 Z M 548.421875 488.753906 " fill-opacity="1" fill-rule="nonzero"/><path fill="#ffffff" d="M 360.597656 486.710938 C 348.984375 488.167969 335.210938 491.164062 332.179688 503.320312 C 330.546875 509.875 332.972656 516.75 337.882812 521.390625 C 348.320312 531.246094 362.375 531.058594 375.601562 530.703125 C 410.339844 529.757812 445.082031 528.808594 479.824219 527.863281 C 492.140625 527.53125 505.242188 526.949219 515.398438 519.964844 C 515.761719 519.714844 516.113281 519.457031 516.46875 519.1875 C 529.453125 509.082031 523.179688 488.074219 506.855469 486.128906 C 457.816406 480.304688 409.839844 480.53125 360.597656 486.710938 Z M 360.597656 486.710938 " fill-opacity="1" fill-rule="nonzero"/><path fill="#ffffff" d="M 268.097656 424.671875 C 261.429688 427.613281 257.433594 432.648438 256.0625 439.820312 C 254.980469 445.449219 256.0625 451.515625 259.285156 456.246094 C 262.253906 460.609375 266.964844 463.71875 272.125 464.800781 C 277.285156 465.882812 282.832031 464.945312 287.378906 462.28125 C 293.445312 458.734375 297.597656 452.097656 298.148438 445.09375 C 298.65625 438.519531 297.085938 432.046875 291.832031 427.675781 C 285.308594 422.246094 276.890625 420.789062 268.097656 424.671875 Z M 268.097656 424.671875 " fill-opacity="1" fill-rule="nonzero"/><path fill="#ffffff" d="M 340.984375 421.183594 C 329.371094 422.640625 315.597656 425.636719 312.570312 437.789062 C 310.933594 444.34375 313.359375 451.222656 318.269531 455.863281 C 328.707031 465.714844 342.761719 465.527344 355.988281 465.175781 C 390.726562 464.226562 425.46875 463.28125 460.210938 462.335938 C 472.53125 462 485.628906 461.417969 495.785156 454.4375 C 496.148438 454.1875 496.5 453.929688 496.855469 453.65625 C 509.839844 443.554688 503.566406 422.546875 487.242188 420.601562 C 438.195312 414.765625 390.21875 414.992188 340.984375 421.183594 Z M 340.984375 421.183594 " fill-opacity="1" fill-rule="nonzero"/></svg>