<svg xmlns="http://www.w3.org/2000/svg" xmlns:xlink="http://www.w3.org/1999/xlink" width="1080" zoomAndPan="magnify" viewBox="0 0 810 809.999993" height="1080" preserveAspectRatio="xMidYMid meet" version="1.0"><defs><clipPath id="3af96230b4"><path d="M 319 479 L 512 479 L 512 528.773438 L 319 528.773438 Z M 319 479 " clip-rule="nonzero"/></clipPath></defs><path fill="#ffffff" d="M 536.421875 355.273438 C 529.75 358.21875 525.757812 363.253906 524.382812 370.425781 C 523.300781 376.054688 524.382812 382.121094 527.609375 386.851562 C 530.574219 391.214844 535.285156 394.324219 540.449219 395.40625 C 545.609375 396.488281 551.152344 395.550781 555.699219 392.886719 C 561.765625 389.339844 565.917969 382.703125 566.46875 375.699219 C 566.980469 369.125 565.40625 362.652344 560.152344 358.28125 C 553.628906 352.863281 545.203125 351.394531 536.421875 355.273438 Z M 536.421875 355.273438 " fill-opacity="1" fill-rule="nonzero"/><path fill="#ffffff" d="M 348.597656 353.246094 C 336.984375 354.703125 323.210938 357.699219 320.179688 369.851562 C 318.546875 376.40625 320.972656 383.285156 325.882812 387.925781 C 336.320312 397.777344 350.375 397.589844 363.601562 397.238281 C 398.339844 396.289062 433.082031 395.34375 467.824219 394.398438 C 480.140625 394.0625 493.242188 393.480469 503.398438 386.5 C 503.761719 386.25 504.113281 385.988281 504.46875 385.71875 C 517.453125 375.617188 511.179688 354.609375 494.855469 352.664062 C 445.816406 346.828125 397.839844 347.066406 348.597656 353.246094 Z M 348.597656 353.246094 " fill-opacity="1" fill-rule="nonzero"/><path fill="#ffffff" d="M 256.097656 291.191406 C 249.429688 294.136719 245.433594 299.171875 244.0625 306.34375 C 242.980469 311.972656 244.0625 318.039062 247.285156 322.769531 C 250.253906 327.128906 254.964844 330.242188 260.125 331.324219 C 265.285156 332.40625 270.832031 331.46875 275.378906 328.804688 C 281.445312 325.257812 285.597656 318.621094 286.148438 311.617188 C 286.65625 305.042969 285.085938 298.570312 279.832031 294.199219 C 273.308594 288.78125 264.890625 287.3125 256.097656 291.191406 Z M 256.097656 291.191406 " fill-opacity="1" fill-rule="nonzero"/><path fill="#ffffff" d="M 328.984375 287.707031 C 317.371094 289.164062 303.597656 292.160156 300.570312 304.3125 C 298.933594 310.867188 301.359375 317.746094 306.269531 322.386719 C 316.707031 332.238281 330.761719 332.050781 343.988281 331.699219 C 378.726562 330.75 413.46875 329.804688 448.210938 328.859375 C 460.53125 328.523438 473.628906 327.941406 483.785156 320.960938 C 484.148438 320.710938 484.5 320.449219 484.855469 320.179688 C 497.839844 310.078125 491.566406 289.070312 475.242188 287.125 C 426.195312 281.289062 378.21875 281.527344 328.984375 287.707031 Z M 328.984375 287.707031 " fill-opacity="1" fill-rule="nonzero"/><path fill="#ffffff" d="M 536.421875 486.269531 C 529.75 489.214844 525.757812 494.25 524.382812 501.417969 C 523.300781 507.046875 524.382812 513.113281 527.609375 517.847656 C 530.574219 522.207031 535.285156 525.316406 540.449219 526.398438 C 545.609375 527.480469 551.152344 526.546875 555.699219 523.882812 C 561.765625 520.335938 565.917969 513.695312 566.46875 506.695312 C 566.980469 500.117188 565.40625 493.644531 560.152344 489.277344 C 553.628906 483.855469 545.203125 482.386719 536.421875 486.269531 Z M 536.421875 486.269531 " fill-opacity="1" fill-rule="nonzero"/><g clip-path="url(#3af96230b4)"><path fill="#ffffff" d="M 348.597656 484.230469 C 336.984375 485.6875 323.210938 488.683594 320.179688 500.835938 C 318.546875 507.390625 320.972656 514.269531 325.882812 518.910156 C 336.320312 528.761719 350.375 528.574219 363.601562 528.222656 C 398.339844 527.273438 433.082031 526.328125 467.824219 525.378906 C 480.140625 525.046875 493.242188 524.464844 503.398438 517.484375 C 503.761719 517.234375 504.113281 516.972656 504.46875 516.703125 C 517.453125 506.601562 511.179688 485.59375 494.855469 483.648438 C 445.816406 477.820312 397.839844 478.050781 348.597656 484.230469 Z M 348.597656 484.230469 " fill-opacity="1" fill-rule="nonzero"/></g><path fill="#ffffff" d="M 256.097656 422.1875 C 249.429688 425.132812 245.433594 430.167969 244.0625 437.335938 C 242.980469 442.964844 244.0625 449.03125 247.285156 453.765625 C 250.253906 458.125 254.964844 461.234375 260.125 462.316406 C 265.285156 463.398438 270.832031 462.464844 275.378906 459.800781 C 281.445312 456.253906 285.597656 449.613281 286.148438 442.613281 C 286.65625 436.035156 285.085938 429.5625 279.832031 425.195312 C 273.308594 419.761719 264.890625 418.304688 256.097656 422.1875 Z M 256.097656 422.1875 " fill-opacity="1" fill-rule="nonzero"/><path fill="#ffffff" d="M 328.984375 418.703125 C 317.371094 420.160156 303.597656 423.15625 300.570312 435.308594 C 298.933594 441.863281 301.359375 448.738281 306.269531 453.378906 C 316.707031 463.234375 330.761719 463.046875 343.988281 462.691406 C 378.726562 461.746094 413.46875 460.800781 448.210938 459.851562 C 460.53125 459.519531 473.628906 458.9375 483.785156 451.957031 C 484.148438 451.707031 484.5 451.445312 484.855469 451.175781 C 497.839844 441.070312 491.566406 420.066406 475.242188 418.121094 C 426.195312 412.28125 378.21875 412.511719 328.984375 418.703125 Z M 328.984375 418.703125 " fill-opacity="1" fill-rule="nonzero"/></svg>