<svg xmlns="http://www.w3.org/2000/svg" xmlns:xlink="http://www.w3.org/1999/xlink" width="1080" zoomAndPan="magnify" viewBox="0 0 810 809.999993" height="1080" preserveAspectRatio="xMidYMid meet" version="1.0"><defs><clipPath id="545f3ecad6"><path d="M 243 245.699219 L 567 245.699219 L 567 564.449219 L 243 564.449219 Z M 243 245.699219 " clip-rule="nonzero"/></clipPath></defs><path fill="#ffffff" d="M 524.007812 364.8125 L 442.976562 364.183594 L 440.964844 352.023438 L 440.964844 284.746094 C 440.964844 278.46875 435.441406 273.335938 428.65625 273.335938 L 356.695312 273.335938 C 349.9375 273.335938 344.386719 278.46875 344.386719 284.746094 L 344.386719 365.773438 L 261.914062 365.773438 C 255.640625 365.773438 250.503906 371.300781 250.503906 378.082031 L 250.503906 450.046875 C 250.503906 456.800781 255.640625 462.355469 261.914062 462.355469 L 344.386719 462.355469 L 344.386719 546.269531 C 344.386719 552.542969 349.910156 557.675781 356.695312 557.675781 L 428.65625 557.675781 C 435.414062 557.675781 440.964844 552.542969 440.964844 546.269531 L 440.964844 462.355469 L 523.4375 462.355469 C 529.710938 462.355469 534.847656 456.832031 534.847656 450.046875 L 534.847656 378.054688 C 534.847656 371.300781 530.28125 364.8125 524.007812 364.8125 Z M 524.007812 364.8125 " fill-opacity="1" fill-rule="nonzero"/><g clip-path="url(#545f3ecad6)"><path fill="#121212" d="M 566.789062 348.632812 C 566.789062 348.542969 566.789062 348.453125 566.789062 348.390625 L 566.789062 348.363281 C 566.789062 348.273438 566.789062 348.152344 566.761719 348.0625 L 566.761719 348.03125 C 566.761719 347.941406 566.730469 347.820312 566.730469 347.730469 L 566.730469 347.703125 C 566.730469 347.613281 566.699219 347.519531 566.699219 347.429688 C 566.699219 347.402344 566.699219 347.402344 566.699219 347.371094 C 566.699219 347.339844 566.699219 347.3125 566.667969 347.28125 C 566.667969 347.25 566.667969 347.222656 566.640625 347.191406 C 566.640625 347.160156 566.640625 347.132812 566.609375 347.132812 C 566.609375 347.101562 566.609375 347.070312 566.578125 347.039062 C 566.578125 347.011719 566.578125 347.011719 566.550781 346.980469 C 566.550781 346.949219 566.519531 346.890625 566.519531 346.859375 C 566.519531 346.832031 566.488281 346.769531 566.488281 346.742188 L 566.488281 346.710938 C 566.488281 346.652344 566.460938 346.621094 566.429688 346.558594 C 566.398438 346.5 566.398438 346.46875 566.371094 346.410156 L 566.371094 346.378906 C 566.339844 346.320312 566.339844 346.289062 566.308594 346.230469 C 566.28125 346.171875 566.28125 346.140625 566.25 346.082031 C 566.21875 346.019531 566.21875 345.988281 566.191406 345.929688 C 566.160156 345.871094 566.160156 345.839844 566.128906 345.78125 C 566.097656 345.71875 566.070312 345.660156 566.039062 345.628906 C 566.007812 345.601562 565.980469 345.539062 565.980469 345.507812 C 565.949219 345.449219 565.917969 345.417969 565.890625 345.359375 C 565.859375 345.328125 565.828125 345.269531 565.800781 345.238281 C 565.769531 345.179688 565.738281 345.148438 565.710938 345.089844 C 565.679688 345.058594 565.648438 345 565.617188 344.96875 C 565.589844 344.9375 565.589844 344.910156 565.558594 344.910156 C 565.558594 344.878906 565.527344 344.878906 565.527344 344.847656 C 565.527344 344.847656 565.527344 344.820312 565.5 344.820312 C 565.46875 344.789062 565.4375 344.730469 565.410156 344.699219 C 565.378906 344.667969 565.378906 344.667969 565.347656 344.640625 C 565.320312 344.609375 565.289062 344.578125 565.257812 344.550781 C 565.230469 344.519531 565.199219 344.488281 565.167969 344.457031 C 565.167969 344.429688 565.140625 344.429688 565.140625 344.398438 C 565.109375 344.367188 565.078125 344.308594 565.019531 344.277344 C 564.988281 344.25 564.988281 344.25 564.957031 344.21875 L 564.929688 344.1875 C 564.898438 344.128906 564.839844 344.097656 564.808594 344.039062 L 564.75 343.980469 C 564.6875 343.917969 564.660156 343.886719 564.597656 343.828125 C 564.597656 343.828125 564.597656 343.828125 564.566406 343.796875 C 564.539062 343.769531 564.539062 343.769531 564.507812 343.738281 C 564.449219 343.679688 564.417969 343.648438 564.359375 343.589844 C 564.359375 343.589844 564.359375 343.589844 564.328125 343.558594 C 564.296875 343.558594 564.296875 343.527344 564.269531 343.527344 C 564.269531 343.527344 564.269531 343.527344 564.238281 343.527344 C 564.179688 343.5 564.148438 343.4375 564.089844 343.40625 L 564.058594 343.378906 L 563.996094 343.316406 C 563.9375 343.289062 563.90625 343.257812 563.847656 343.199219 C 563.816406 343.167969 563.816406 343.167969 563.789062 343.167969 C 563.757812 343.136719 563.757812 343.136719 563.726562 343.109375 C 563.699219 343.078125 563.636719 343.046875 563.609375 343.019531 C 563.578125 342.988281 563.546875 342.988281 563.519531 342.957031 C 563.488281 342.929688 563.457031 342.929688 563.425781 342.898438 C 563.398438 342.867188 563.367188 342.867188 563.335938 342.835938 C 563.308594 342.808594 563.277344 342.808594 563.246094 342.777344 C 563.21875 342.746094 563.1875 342.746094 563.128906 342.71875 C 563.097656 342.71875 563.066406 342.6875 563.066406 342.6875 C 563.039062 342.65625 563.007812 342.65625 562.945312 342.628906 C 562.917969 342.597656 562.855469 342.597656 562.828125 342.566406 C 562.828125 342.566406 562.796875 342.566406 562.796875 342.539062 C 562.765625 342.507812 562.707031 342.507812 562.675781 342.476562 C 562.617188 342.449219 562.585938 342.449219 562.527344 342.417969 C 562.527344 342.417969 562.527344 342.417969 562.496094 342.417969 C 562.4375 342.386719 562.40625 342.386719 562.347656 342.355469 C 562.285156 342.328125 562.257812 342.328125 562.195312 342.296875 C 562.136719 342.265625 562.105469 342.265625 562.046875 342.238281 C 561.988281 342.207031 561.925781 342.207031 561.894531 342.175781 C 561.835938 342.148438 561.804688 342.148438 561.746094 342.148438 C 561.6875 342.148438 561.65625 342.117188 561.597656 342.117188 L 561.566406 342.117188 C 561.507812 342.117188 561.476562 342.085938 561.417969 342.085938 C 561.386719 342.085938 561.324219 342.058594 561.296875 342.058594 L 561.265625 342.058594 C 561.207031 342.058594 561.175781 342.027344 561.117188 342.027344 C 561.085938 342.027344 561.054688 342.027344 560.996094 341.996094 C 560.964844 341.996094 560.9375 341.996094 560.90625 341.996094 C 560.84375 341.996094 560.816406 341.996094 560.753906 341.96875 C 560.726562 341.96875 560.695312 341.96875 560.664062 341.96875 C 560.636719 341.96875 560.574219 341.96875 560.546875 341.96875 C 560.515625 341.96875 560.457031 341.96875 560.425781 341.96875 C 560.394531 341.96875 560.394531 341.96875 560.367188 341.96875 C 560.304688 341.96875 560.246094 341.96875 560.183594 341.96875 C 560.15625 341.96875 560.15625 341.96875 560.125 341.96875 L 471.230469 340.617188 L 471.230469 252.472656 C 471.230469 252.410156 471.230469 252.378906 471.230469 252.320312 C 471.230469 252.261719 471.230469 252.199219 471.230469 252.140625 C 471.230469 252.082031 471.230469 252.019531 471.230469 251.992188 C 471.230469 251.929688 471.230469 251.871094 471.199219 251.808594 C 471.199219 251.75 471.199219 251.691406 471.167969 251.660156 C 471.167969 251.601562 471.167969 251.539062 471.140625 251.480469 C 471.140625 251.421875 471.109375 251.390625 471.109375 251.328125 C 471.109375 251.269531 471.078125 251.210938 471.078125 251.148438 C 471.078125 251.089844 471.050781 251.03125 471.050781 251 C 471.050781 250.941406 471.019531 250.878906 471.019531 250.820312 C 471.019531 250.757812 470.988281 250.699219 470.960938 250.667969 C 470.929688 250.609375 470.929688 250.578125 470.898438 250.519531 C 470.867188 250.460938 470.867188 250.398438 470.839844 250.371094 C 470.808594 250.308594 470.808594 250.277344 470.777344 250.21875 C 470.75 250.160156 470.75 250.097656 470.71875 250.039062 C 470.6875 249.980469 470.6875 249.949219 470.660156 249.890625 C 470.628906 249.828125 470.597656 249.769531 470.570312 249.707031 C 470.539062 249.679688 470.539062 249.617188 470.507812 249.589844 C 470.480469 249.527344 470.449219 249.46875 470.417969 249.410156 C 470.390625 249.378906 470.390625 249.320312 470.359375 249.289062 C 470.328125 249.226562 470.296875 249.167969 470.269531 249.109375 C 470.238281 249.078125 470.238281 249.019531 470.207031 248.988281 C 470.179688 248.929688 470.148438 248.867188 470.117188 248.839844 C 470.089844 248.808594 470.058594 248.777344 470.058594 248.71875 C 470.027344 248.65625 470 248.597656 469.9375 248.566406 C 469.910156 248.539062 469.878906 248.507812 469.847656 248.476562 C 469.816406 248.417969 469.757812 248.386719 469.726562 248.328125 C 469.699219 248.296875 469.667969 248.269531 469.636719 248.238281 C 469.609375 248.175781 469.546875 248.148438 469.519531 248.085938 C 469.488281 248.058594 469.457031 248.027344 469.429688 247.996094 C 469.398438 247.9375 469.339844 247.90625 469.308594 247.847656 C 469.277344 247.816406 469.246094 247.789062 469.21875 247.757812 C 469.1875 247.726562 469.128906 247.667969 469.066406 247.636719 C 469.039062 247.605469 469.007812 247.578125 468.976562 247.546875 C 468.917969 247.515625 468.886719 247.457031 468.828125 247.425781 C 468.796875 247.398438 468.765625 247.367188 468.707031 247.335938 C 468.648438 247.308594 468.617188 247.277344 468.558594 247.21875 C 468.527344 247.1875 468.46875 247.15625 468.4375 247.125 C 468.378906 247.097656 468.347656 247.066406 468.285156 247.035156 C 468.257812 247.007812 468.195312 246.976562 468.167969 246.945312 C 468.105469 246.917969 468.078125 246.886719 468.015625 246.855469 C 467.988281 246.828125 467.925781 246.796875 467.898438 246.765625 C 467.835938 246.738281 467.808594 246.707031 467.746094 246.675781 C 467.714844 246.648438 467.65625 246.617188 467.625 246.585938 C 467.566406 246.554688 467.535156 246.527344 467.476562 246.496094 C 467.417969 246.464844 467.386719 246.4375 467.328125 246.4375 C 467.265625 246.40625 467.207031 246.375 467.175781 246.375 C 467.117188 246.347656 467.085938 246.347656 467.027344 246.316406 C 466.964844 246.285156 466.90625 246.285156 466.847656 246.257812 C 466.785156 246.226562 466.757812 246.226562 466.695312 246.195312 C 466.636719 246.167969 466.574219 246.167969 466.515625 246.136719 C 466.484375 246.136719 466.425781 246.105469 466.394531 246.105469 C 466.335938 246.074219 466.277344 246.074219 466.183594 246.046875 C 466.15625 246.046875 466.09375 246.015625 466.066406 246.015625 C 465.976562 245.984375 465.914062 245.984375 465.824219 245.957031 C 465.796875 245.957031 465.765625 245.925781 465.734375 245.925781 C 465.644531 245.894531 465.554688 245.894531 465.464844 245.867188 C 465.433594 245.867188 465.40625 245.867188 465.40625 245.867188 C 465.316406 245.867188 465.226562 245.835938 465.105469 245.835938 L 465.074219 245.835938 C 464.835938 245.804688 464.625 245.804688 464.382812 245.804688 C 464.355469 245.804688 464.355469 245.804688 464.324219 245.804688 L 375.246094 245.804688 C 374.496094 245.804688 371.796875 247.515625 371.796875 247.515625 C 371.617188 247.636719 371.433594 247.726562 371.253906 247.878906 L 371.226562 247.878906 L 346.007812 266.070312 C 340.242188 269.132812 336.339844 275.167969 336.339844 282.132812 L 336.339844 357.429688 L 261.492188 357.429688 C 251.285156 357.429688 243 365.714844 243 375.921875 L 243 452.238281 C 243 462.445312 251.285156 470.734375 261.492188 470.734375 L 336.460938 470.734375 L 336.460938 546.027344 C 336.460938 556.054688 344.59375 564.191406 354.621094 564.191406 L 431.601562 564.191406 C 435.921875 564.191406 439.914062 562.660156 443.039062 560.140625 C 443.21875 560.046875 443.398438 559.929688 443.578125 559.808594 L 472.429688 540.625 C 472.519531 540.5625 472.609375 540.503906 472.699219 540.445312 C 472.699219 540.445312 472.699219 540.445312 472.730469 540.414062 C 472.789062 540.355469 472.851562 540.324219 472.941406 540.265625 C 473.480469 539.84375 473.929688 539.332031 474.292969 538.792969 C 474.292969 538.792969 474.292969 538.761719 474.320312 538.761719 C 474.382812 538.703125 474.410156 538.613281 474.441406 538.554688 C 474.472656 538.523438 474.472656 538.492188 474.5 538.460938 C 474.53125 538.402344 474.5625 538.34375 474.589844 538.28125 C 474.621094 538.253906 474.652344 538.191406 474.652344 538.164062 C 474.679688 538.132812 474.679688 538.074219 474.710938 538.042969 C 474.742188 537.980469 474.773438 537.921875 474.800781 537.863281 C 474.800781 537.832031 474.832031 537.832031 474.832031 537.800781 C 474.863281 537.710938 474.921875 537.621094 474.953125 537.5625 C 475.222656 536.929688 475.371094 536.269531 475.433594 535.550781 C 475.433594 535.492188 475.433594 535.402344 475.460938 535.339844 C 475.460938 535.308594 475.460938 535.308594 475.460938 535.28125 C 475.460938 535.191406 475.460938 535.070312 475.460938 534.980469 L 475.460938 470.703125 L 524.757812 470.703125 C 529.261719 470.703125 533.40625 469.082031 536.617188 466.378906 L 563.757812 448.546875 C 565.917969 447.136719 567 444.671875 566.761719 442.273438 C 566.789062 442.0625 566.789062 441.882812 566.789062 441.671875 Z M 354.621094 550.589844 C 352.070312 550.589844 350.027344 548.519531 350.027344 546 L 350.027344 463.917969 C 350.027344 460.164062 346.996094 457.132812 343.246094 457.132812 L 261.492188 457.132812 C 258.761719 457.132812 256.570312 454.910156 256.570312 452.207031 L 256.570312 375.890625 C 256.570312 373.160156 258.792969 370.96875 261.492188 370.96875 L 343.246094 370.96875 C 346.996094 370.96875 350.027344 367.9375 350.027344 364.183594 L 350.027344 282.101562 C 350.027344 279.550781 352.101562 277.507812 354.621094 277.507812 L 431.601562 277.507812 C 434.152344 277.507812 436.191406 279.582031 436.191406 282.101562 L 436.191406 364.183594 C 436.191406 367.9375 439.226562 370.96875 442.976562 370.96875 C 448.351562 371.058594 454.265625 371.089844 460.449219 371.089844 C 460.601562 371.148438 460.78125 371.179688 460.960938 371.179688 L 524.730469 370.96875 C 527.460938 370.96875 529.652344 373.191406 529.652344 375.890625 L 529.652344 452.207031 C 529.652344 453.648438 529.023438 454.941406 528.0625 455.839844 L 526.738281 456.710938 C 526.140625 456.980469 525.449219 457.132812 524.757812 457.132812 L 443.007812 457.132812 C 439.253906 457.132812 436.222656 460.164062 436.222656 463.917969 L 436.222656 546 C 436.222656 548.550781 434.152344 550.589844 431.628906 550.589844 Z M 354.621094 550.589844 " fill-opacity="1" fill-rule="nonzero"/></g></svg>