<svg xmlns="http://www.w3.org/2000/svg" xmlns:xlink="http://www.w3.org/1999/xlink" width="1080" zoomAndPan="magnify" viewBox="0 0 810 809.999993" height="1080" preserveAspectRatio="xMidYMid meet" version="1.0"><path fill="#000000" d="M 405.539062 308.117188 C 370.070312 308.117188 337.207031 322.585938 310.609375 340.203125 C 271.652344 366.007812 246.371094 398.289062 246.371094 398.289062 C 243.3125 402.183594 243.3125 407.667969 246.371094 411.5625 C 246.371094 411.5625 271.652344 443.839844 310.609375 469.644531 C 337.207031 487.265625 370.070312 501.730469 405.539062 501.730469 C 441.007812 501.730469 473.867188 487.265625 500.46875 469.644531 C 539.421875 443.839844 564.707031 411.5625 564.707031 411.5625 C 567.765625 407.667969 567.765625 402.183594 564.707031 398.289062 C 564.707031 398.289062 539.421875 366.007812 500.46875 340.203125 C 473.867188 322.585938 441.007812 308.117188 405.539062 308.117188 Z M 405.539062 329.628906 C 436.613281 329.628906 465.269531 342.699219 488.5625 358.125 C 514.019531 374.988281 533.15625 394.824219 542.125 404.925781 C 533.15625 415.023438 514.019531 434.859375 488.5625 451.726562 C 465.269531 467.148438 436.613281 480.21875 405.539062 480.21875 C 374.460938 480.21875 345.808594 467.148438 322.515625 451.726562 C 297.058594 434.859375 277.917969 415.023438 268.953125 404.925781 C 277.917969 394.824219 297.058594 374.988281 322.515625 358.125 C 345.808594 342.699219 374.460938 329.628906 405.539062 329.628906 Z M 405.539062 340.386719 C 369.898438 340.386719 340.953125 369.3125 340.953125 404.925781 C 340.953125 440.539062 369.898438 469.464844 405.539062 469.464844 C 441.179688 469.464844 470.121094 440.539062 470.121094 404.925781 C 470.121094 369.3125 441.179688 340.386719 405.539062 340.386719 Z M 405.539062 361.898438 C 429.304688 361.898438 448.59375 381.175781 448.59375 404.925781 C 448.59375 428.675781 429.304688 447.949219 405.539062 447.949219 C 381.769531 447.949219 362.480469 428.675781 362.480469 404.925781 C 362.480469 381.175781 381.769531 361.898438 405.539062 361.898438 Z M 405.539062 394.167969 C 411.480469 394.167969 416.300781 398.988281 416.300781 404.925781 C 416.300781 410.863281 421.125 415.679688 427.066406 415.679688 C 433.007812 415.679688 437.832031 410.863281 437.832031 404.925781 C 437.832031 387.113281 423.363281 372.65625 405.539062 372.65625 C 399.597656 372.65625 394.773438 377.476562 394.773438 383.414062 C 394.773438 389.351562 399.597656 394.167969 405.539062 394.167969 Z M 405.539062 394.167969 " fill-opacity="1" fill-rule="evenodd"/></svg>