<svg xmlns="http://www.w3.org/2000/svg" xmlns:xlink="http://www.w3.org/1999/xlink" width="1080" zoomAndPan="magnify" viewBox="0 0 810 809.999993" height="1080" preserveAspectRatio="xMidYMid meet" version="1.0"><defs><clipPath id="0e9cd91a93"><path d="M 243 258.253906 L 564 258.253906 L 564 551.503906 L 243 551.503906 Z M 243 258.253906 " clip-rule="nonzero"/></clipPath></defs><g clip-path="url(#0e9cd91a93)"><path fill="#000000" d="M 532.816406 292.332031 C 524.53125 292.332031 516.726562 295.539062 510.898438 301.359375 L 501.867188 310.386719 C 473.855469 277.109375 433.277344 258.09375 389.605469 258.09375 C 308.777344 258.09375 243.023438 323.796875 243.023438 404.613281 C 243.023438 485.429688 308.777344 551.132812 389.605469 551.132812 C 470.433594 551.132812 536.238281 485.429688 536.238281 404.613281 C 536.238281 392.328125 534.636719 380.09375 531.589844 368.289062 L 554.734375 345.160156 C 566.765625 333.089844 566.765625 313.433594 554.734375 301.359375 C 548.855469 295.539062 541.105469 292.332031 532.816406 292.332031 Z M 389.605469 540.449219 C 314.65625 540.449219 253.714844 479.5 253.714844 404.613281 C 253.714844 329.726562 314.65625 268.777344 389.605469 268.777344 C 430.390625 268.777344 468.292969 286.617188 494.328125 317.917969 L 411.46875 400.660156 L 379.980469 369.253906 C 367.953125 357.179688 348.335938 357.234375 336.253906 369.253906 C 330.320312 375.179688 327.058594 383.03125 327.113281 391.3125 C 327.113281 399.539062 330.371094 407.230469 336.253906 413 L 389.605469 466.414062 C 395.539062 472.238281 403.289062 475.496094 411.46875 475.496094 C 419.59375 475.496094 427.398438 472.289062 433.492188 466.359375 L 522.769531 377.15625 C 524.585938 386.183594 525.546875 395.371094 525.546875 404.613281 C 525.546875 479.5 464.550781 540.449219 389.605469 540.449219 Z M 389.605469 540.449219 " fill-opacity="1" fill-rule="nonzero"/></g></svg>